<?xml version="1.0" encoding="UTF-8" standalone="no"?>
<!-- Creator: CorelDRAW -->

<svg
   xml:space="preserve"
   width="1.48342in"
   height="2.33861in"
   version="1.1"
   style="shape-rendering:geometricPrecision; text-rendering:geometricPrecision; image-rendering:optimizeQuality; fill-rule:evenodd; clip-rule:evenodd"
   viewBox="0 0 85.75 135.18"
   id="svg14"
   sodipodi:docname="vsl.svg"
   inkscape:version="1.2.1 (9c6d41e, 2022-07-14)"
   xmlns:inkscape="http://www.inkscape.org/namespaces/inkscape"
   xmlns:sodipodi="http://sodipodi.sourceforge.net/DTD/sodipodi-0.dtd"
   xmlns="http://www.w3.org/2000/svg"
   xmlns:svg="http://www.w3.org/2000/svg"><sodipodi:namedview
   id="namedview16"
   pagecolor="#ffffff"
   bordercolor="#000000"
   borderopacity="0.25"
   inkscape:showpageshadow="2"
   inkscape:pageopacity="0.0"
   inkscape:pagecheckerboard="0"
   inkscape:deskcolor="#d1d1d1"
   inkscape:document-units="in"
   showgrid="false"
   inkscape:zoom="1.0511943"
   inkscape:cx="71.347422"
   inkscape:cy="112.25328"
   inkscape:window-width="1309"
   inkscape:window-height="456"
   inkscape:window-x="0"
   inkscape:window-y="38"
   inkscape:window-maximized="0"
   inkscape:current-layer="Layer_x0020_1" />
 <defs
   id="defs4">
  <style
   type="text/css"
   id="style2">
   <![CDATA[
    .fil1 {fill:#585570}
    .fil0 {fill:#718FC8}
   ]]>
  </style>
 </defs>
 <g
   id="Layer_x0020_1"
   inkscape:label="Layer 1">
  <metadata
   id="CorelCorpID_0Corel-Layer" />
  <path
   class="fil0"
   d="M42.65 76.84c2.85,-0.12 4.85,-0.21 7.63,-0.87 2.34,-0.55 4.36,-1.24 6.4,-2.15 11.46,-5.08 20.12,-16.97 20.12,-31.11 0,-7.19 -2.22,-14.01 -6.08,-19.52 -4.88,-6.96 -11.98,-11.85 -20.37,-13.81 -1.18,-0.28 -2.38,-0.48 -3.63,-0.63 -1.16,-0.14 -2.84,-0.31 -4.07,-0.24 -3.77,-0.02 -7.51,0.63 -10.97,1.8 -1.01,0.34 -2.16,0.76 -3.09,1.21 -2.7,1.29 -4.33,2.22 -6.67,4 -0.41,0.31 -0.79,0.64 -1.18,0.94 -0.41,0.31 -0.75,0.68 -1.13,0.99 -0.4,0.33 -1.24,1.2 -1.61,1.6 -0.55,0.59 -0.97,0.98 -1.53,1.68l-1.85 2.4c-1.02,1.38 -2.43,3.97 -3.09,5.45 -1.9,4.23 -3.03,8.86 -3.03,14.08 0,7.35 2.21,13.83 6.11,19.5 0.47,0.69 1.98,2.66 2.57,3.26 0.12,0.12 0.17,0.17 0.26,0.28 0.38,0.49 1.14,1.17 1.59,1.62 0.18,0.18 0.36,0.38 0.55,0.53l1.14 0.99c2.46,1.94 2.5,1.94 5.03,3.51 0.41,0.26 0.93,0.51 1.38,0.74 3.91,2.06 9,3.43 13.44,3.65 0.42,0.02 1.78,0.01 2.07,0.09z"
   id="path7" />
  <path
   class="fil0"
   d="M42.88 135.18l-0.02 -58.78c-0.28,-0.07 -1.62,-0.06 -2.03,-0.08 -4.35,-0.22 -9.35,-1.56 -13.18,-3.58 -0.44,-0.23 -0.95,-0.48 -1.35,-0.73 -2.48,-1.54 -2.53,-1.54 -4.94,-3.44l-1.11 -0.97c-0.19,-0.15 -0.36,-0.34 -0.54,-0.52 -0.44,-0.44 -1.19,-1.11 -1.56,-1.59 -0.09,-0.11 -0.14,-0.16 -0.26,-0.28 -0.58,-0.59 -2.06,-2.52 -2.53,-3.2 -3.82,-5.56 -5.99,-11.92 -5.99,-19.13 0,-5.12 1.1,-9.67 2.97,-13.81 0.65,-1.46 2.03,-3.99 3.03,-5.35l1.81 -2.36c0.55,-0.69 0.96,-1.07 1.5,-1.65 0.36,-0.39 1.19,-1.25 1.58,-1.57 0.38,-0.31 0.71,-0.66 1.11,-0.97 0.39,-0.3 0.76,-0.62 1.16,-0.92 2.3,-1.74 3.9,-2.65 6.55,-3.92 0.91,-0.44 2.04,-0.85 3.03,-1.18 3.39,-1.15 7.06,-1.78 10.76,-1.77l0 -9.38c-7.97,0 -15.05,2.03 -21.73,5.9 -2.55,1.47 -3.92,2.57 -6.04,4.29 -0.14,0.11 -0.34,0.28 -0.45,0.39 -0.81,0.79 -1.34,1.16 -2.24,2.11 -0.41,0.43 -1.35,1.37 -1.67,1.78l-0.39 0.46c-0.7,0.8 -1.29,1.55 -1.94,2.41 -0.5,0.66 -0.95,1.33 -1.42,2.04 -3.98,5.96 -6.45,13.29 -6.92,20.72 -0.28,4.41 0.25,8.07 1.39,12.24 2,7.29 4.42,13.23 7.44,20.18 0.35,0.81 0.71,1.62 1.07,2.39 0.94,2.06 2.31,5.07 3.31,7.07 1.49,2.96 3.05,6.34 4.59,9.2 0.4,0.74 0.8,1.51 1.18,2.28l2.39 4.53c0.41,0.76 0.79,1.52 1.2,2.25 0.85,1.48 1.58,2.97 2.42,4.45 0.85,1.48 1.6,2.97 2.47,4.45 0.42,0.72 0.83,1.49 1.24,2.22l10.17 17.45c1.11,1.86 2.42,4.07 3.59,5.9 0.09,0.14 0.22,0.46 0.34,0.47z"
   id="path9" />
  <path
   class="fil1"
   d="M42.88 9.38c1.2,-0.07 2.85,0.1 3.99,0.23 1.22,0.14 2.4,0.34 3.56,0.62 8.23,1.92 15.2,6.72 19.98,13.55 3.79,5.4 5.96,12.09 5.96,19.15 -0,13.87 -8.5,25.53 -19.74,30.51 -2.01,0.89 -3.98,1.56 -6.28,2.11 -2.72,0.64 -4.69,0.74 -7.48,0.85l0.02 58.78c0.5,-0.51 9.85,-16.44 10.32,-17.27 0.41,-0.72 0.82,-1.45 1.25,-2.16 0.44,-0.74 0.83,-1.48 1.26,-2.2 0.85,-1.45 1.65,-2.94 2.49,-4.42 0.71,-1.25 1.44,-2.66 2.16,-3.87 0.12,-0.2 0.19,-0.38 0.31,-0.58 0.86,-1.47 1.6,-2.98 2.44,-4.48 0.41,-0.74 0.81,-1.48 1.19,-2.22 1.18,-2.26 2.41,-4.52 3.57,-6.81 1.55,-3.08 3.11,-6.09 4.61,-9.23 2.98,-6.25 5.91,-12.57 8.4,-19.23 1.24,-3.32 2.5,-6.82 3.4,-10.39 1.03,-4.07 1.71,-7.58 1.39,-12.2 -0.33,-4.77 -1.46,-9.77 -3.3,-13.95 -0.57,-1.3 -1.02,-2.27 -1.68,-3.51l-1.26 -2.2c-0.69,-1.09 -1.32,-2.03 -2.08,-3.07l-3.14 -3.78c-0.3,-0.31 -0.6,-0.55 -0.85,-0.88l-0.88 -0.85c-2.63,-2.56 -4.81,-4.06 -7.88,-5.96 -0.34,-0.21 -0.71,-0.42 -1.07,-0.61 -2.95,-1.57 -5.19,-2.56 -8.55,-3.56 -3.71,-1.1 -7.79,-1.73 -12.1,-1.73l-0 9.38z"
   id="path11"
   style="fill:#333333;fill-opacity:1" />
 </g>
</svg>
